<svg xmlns="http://www.w3.org/2000/svg" viewBox="0 0 512 512" fill="none">
  <!-- Stew Ladle Logo - derived from brand image -->
  <!-- Handle -->
  <path d="M485 30 C470 20, 445 25, 420 45 C395 65, 365 95, 330 135 C295 175, 255 220, 220 260 C185 295, 150 330, 120 355 C95 375, 70 392, 50 400 C35 406, 18 410, 12 400 C5 390, 15 372, 32 352 C55 325, 90 290, 130 250 C170 210, 215 168, 260 130 C305 92, 345 62, 380 42 C410 27, 440 18, 460 20 C475 22, 490 35, 485 30Z" fill="currentColor"/>
  <!-- Bowl of the ladle -->
  <path d="M120 355 C95 375, 65 395, 45 405 C30 412, 15 415, 10 408 C3 398, 12 378, 30 358 C55 330, 90 295, 130 258 C155 238, 180 218, 200 202 C165 235, 130 272, 105 300 C85 320, 68 338, 62 348 C58 354, 60 358, 65 356 C72 352, 88 340, 108 322 C125 307, 145 290, 160 275 L120 355Z" fill="currentColor"/>
  <!-- Ladle bowl scoop shape -->
  <path d="M50 400 C35 415, 18 425, 15 420 C10 412, 25 390, 45 370 C70 345, 105 310, 140 280 C170 255, 200 230, 225 210 L290 150 C255 185, 210 225, 170 262 C130 298, 90 335, 65 360 C48 377, 38 392, 42 395 C45 397, 52 393, 50 400Z" fill="currentColor"/>
  <!-- Bowl detail stroke -->
  <ellipse cx="170" cy="330" rx="22" ry="9" transform="rotate(-42 170 330)" stroke="currentColor" stroke-width="8" fill="none" opacity="0.0"/>
</svg>
